:SAMPLES-PER-SECOND 30
:FULLY-SPECIFIED
:DEGREES
158
root  -11.2336 34.7424 -11.5255 -172.541 0.646957 178.903
RightUpLeg  -5.76932 -17.2802 -4.76534
RightLeg  5.79429 -6.09546 -0.222249
RightFoot  6.01709 0.0532737 -0.451127
RightToes  -27.7045 -0.138527 -0.242493
Spine  -0.944934 0.199963 -0.241874
Spine1  -1.93683 0.557506 0.119077
HEad  -67.613 2.05666 1.20599
LeftShoulder1  -1.94126e-019 -3.10601e-018 -2.51263e-017
LeftArm  -1.78059 15.5649 -78.7518
LeftForeArm  24.345 -29.8018 -5.12686
LeftHand  -0.262764 0.714283 6.50275
RightShoulder  -4.96962e-017 0 -2.36833e-017
RightArm  -22.4212 -18.6307 75.0227
RightForeArm  43.3934 22.0613 2.47311
RightHand  0.0374722 -5.89704 -12.8684
LeftUpLeg  -7.07578 -0.570547 1.62142
LeftLeg  3.13546 12.1596 -0.115517
LeftFoot  8.30704 -0.126657 1.93493
LeftToes  -23.7454 2.14545e-006 -7.7278e-009
159
root  -11.1801 34.7257 -11.781 -173.676 1.30974 178.771
RightUpLeg  -4.5499 -16.7583 -5.28385
RightLeg  6.29844 -5.92508 -0.268149
RightFoot  5.38962 0.0458368 -0.367835
RightToes  -27.4838 -0.139249 -0.242362
Spine  -1.19808 0.322459 -0.236416
Spine1  -2.44313 0.802058 0.136383
HEad  -67.4742 2.31104 1.2432
LeftShoulder1  -1.94126e-019 -3.10601e-018 -2.51263e-017
LeftArm  -1.62316 16.0095 -78.8478
LeftForeArm  25.3401 -29.4163 -5.00304
LeftHand  -0.268859 0.569487 6.47046
RightShoulder  -4.96962e-017 0 -2.36833e-017
RightArm  -22.6037 -18.9348 75.3164
RightForeArm  43.2551 21.9533 2.45874
RightHand  0.0361681 -5.88568 -12.8537
LeftUpLeg  -5.2746 -0.175521 1.54354
LeftLeg  2.82088 12.3188 -0.184083
LeftFoot  8.14364 -0.125469 1.92395
LeftToes  -23.7395 2.14545e-006 -7.7278e-009
160
root  -11.1312 34.7129 -11.9442 -174.12 2.1123 178.749
RightUpLeg  -4.2926 -15.6581 -5.40261
RightLeg  6.91782 -6.20663 -0.347972
RightFoot  4.9584 0.0428448 -0.345522
RightToes  -27.4553 -0.139906 -0.242158
Spine  -1.61935 0.450512 -0.177576
Spine1  -3.28311 1.06315 0.258731
HEad  -66.7379 2.67704 1.24327
LeftShoulder1  -1.94126e-019 -3.10601e-018 -2.51263e-017
LeftArm  -2.96496 16.7385 -79.1689
LeftForeArm  25.4571 -28.9238 -4.92151
LeftHand  -0.269984 0.596919 6.53216
RightShoulder  -4.96962e-017 0 -2.36833e-017
RightArm  -23.0068 -19.2452 75.6581
RightForeArm  43.0867 21.4242 2.36453
RightHand  0.0437152 -5.94246 -13.0981
LeftUpLeg  -4.51107 -0.152211 1.55849
LeftLeg  2.95751 13.0163 -0.163549
LeftFoot  7.85186 -0.123524 1.96132
LeftToes  -23.5524 2.14545e-006 -7.7278e-009
161
root  -11.0941 34.7076 -12.0982 -174.743 2.90762 178.707
RightUpLeg  -3.6435 -14.7915 -5.60535
RightLeg  7.08101 -6.23663 -0.367432
RightFoot  4.70242 0.0397541 -0.319379
RightToes  -27.3372 -0.140494 -0.241897
Spine  -1.91647 0.551739 -0.110727
Spine1  -3.87596 1.26824 0.396834
HEad  -65.3361 2.8812 1.34213
LeftShoulder1  -1.94126e-019 -3.10601e-018 -2.51263e-017
LeftArm  -5.29308 17.674 -79.6997
LeftForeArm  25.1504 -28.3757 -4.8446
LeftHand  -0.259713 0.963758 6.76106
RightShoulder  -4.96962e-017 0 -2.36833e-017
RightArm  -23.9056 -19.4903 76.1429
RightForeArm  43.2842 20.5759 2.19353
RightHand  0.0488099 -5.97642 -13.319
LeftUpLeg  -3.43536 -0.397354 1.50539
LeftLeg  2.80645 14.0241 -0.212526
LeftFoot  7.67488 -0.127259 2.06342
LeftToes  -23.195 2.14545e-006 -7.7278e-009
162
root  -11.0493 34.7037 -12.1918 -175.469 3.2868 178.706
RightUpLeg  -2.77974 -14.384 -5.75315
RightLeg  7.004 -6.20583 -0.357271
RightFoot  4.60379 0.0376702 -0.305344
RightToes  -27.4499 -0.14101 -0.241591
Spine  -1.97811 0.501551 -0.0617107
Spine1  -4.00098 1.17535 0.493676
HEad  -64.5452 3.15914 1.73509
LeftShoulder1  -1.94126e-019 -3.10601e-018 -2.51263e-017
LeftArm  -6.51819 18.4541 -79.8983
LeftForeArm  24.2428 -28.269 -4.88557
LeftHand  -0.293674 1.07702 7.85037
RightShoulder  -4.96962e-017 0 -2.36833e-017
RightArm  -24.3029 -19.5115 76.7674
RightForeArm  43.2029 19.6073 2.01342
RightHand  0.0984266 -6.37894 -13.7896
LeftUpLeg  -2.58338 -0.0545559 1.55942
LeftLeg  2.98352 14.015 -0.169528
LeftFoot  7.48266 -0.121149 2.01407
LeftToes  -23.2499 2.14545e-006 -7.7278e-009
163
root  -11.0072 34.6942 -12.2092 -176.096 3.25481 178.664
RightUpLeg  -2.17808 -14.2504 -5.89756
RightLeg  7.19364 -6.31428 -0.384422
RightFoot  4.29108 0.034763 -0.277397
RightToes  -27.0943 -0.141451 -0.241253
Spine  -1.91544 0.382613 -0.00558221
Spine1  -3.88098 0.943741 0.602781
HEad  -64.2434 3.20064 1.86559
LeftShoulder1  -1.94126e-019 -3.10601e-018 -2.51263e-017
LeftArm  -6.14587 18.9996 -79.8859
LeftForeArm  23.4937 -28.2503 -4.92044
LeftHand  -0.236867 1.59004 7.09276
RightShoulder  -4.96962e-017 0 -2.36833e-017
RightArm  -24.7782 -19.5132 77.4136
RightForeArm  43.4017 18.7429 1.84559
RightHand  0.168212 -6.90491 -14.3916
LeftUpLeg  -2.29895 0.121182 1.60228
LeftLeg  3.73771 13.7637 0.0127864
LeftFoot  7.17843 -0.10932 1.90425
LeftToes  -23.1782 2.14545e-006 -7.7278e-009
164
root  -10.9682 34.6717 -12.1503 -176.474 3.11772 178.612
RightUpLeg  -2.29148 -14.4299 -5.97785
RightLeg  8.10899 -6.15766 -0.47357
RightFoot  3.80288 0.029267 -0.210442
RightToes  -27.2406 -0.141814 -0.240898
Spine  -1.861 0.25455 0.047682
Spine1  -3.78665 0.7023 0.692768
HEad  -63.9263 3.15362 2.01532
LeftShoulder1  -1.94126e-019 -3.10601e-018 -2.51263e-017
LeftArm  -5.16742 19.3864 -79.7751
LeftForeArm  24.133 -27.8553 -4.82214
LeftHand  -0.242546 1.23208 6.6819
RightShoulder  -4.96962e-017 0 -2.36833e-017
RightArm  -25.4097 -19.6424 78.0881
RightForeArm  44.048 17.5824 1.60589
RightHand  0.221738 -7.28948 -14.7693
LeftUpLeg  -2.70417 0.172625 1.63233
LeftLeg  5.10508 13.5635 0.33315
LeftFoot  6.71561 -0.0940678 1.76474
LeftToes  -23.2951 2.14545e-006 -7.7278e-009
165
root  -10.9266 34.6408 -12.0422 -176.783 3.19868 178.606
RightUpLeg  -2.7826 -14.2647 -5.929
RightLeg  9.35244 -6.25344 -0.617459
RightFoot  3.1961 0.0241202 -0.146609
RightToes  -26.9241 -0.142095 -0.240537
Spine  -1.74734 0.24375 0.0914665
Spine1  -3.57508 0.690947 0.757205
HEad  -63.6049 2.96272 2.137
LeftShoulder1  -1.94126e-019 -3.10601e-018 -2.51263e-017
LeftArm  -4.47725 19.5999 -79.7033
LeftForeArm  25.9367 -27.3372 -4.65129
LeftHand  -0.250999 0.69574 6.18518
RightShoulder  -4.96962e-017 0 -2.36833e-017
RightArm  -26.3496 -19.7952 78.6591
RightForeArm  45.1224 16.2623 1.38045
RightHand  0.210458 -7.27104 -14.263
LeftUpLeg  -3.3131 -0.0926348 1.67512
LeftLeg  6.68832 13.8885 0.72137
LeftFoot  6.12995 -0.0801759 1.65883
LeftToes  -23.3136 2.14545e-006 -7.7278e-009
